<?xml version="1.0" encoding="UTF-8"?>
<svg width="365px" height="94px" viewBox="0 0 365 94" version="1.1" xmlns="http://www.w3.org/2000/svg" xmlns:xlink="http://www.w3.org/1999/xlink">
    <!-- Generator: Sketch 51.3 (57544) - http://www.bohemiancoding.com/sketch -->
    <title>logo</title>
    <desc>Created with Sketch.</desc>
    <defs></defs>
    <g id="Search-&amp;-Featured-v.0.2" stroke="none" stroke-width="1" fill="none" fill-rule="evenodd">
        <g id="BrewBound-Events-with-Date-(Desktop)" transform="translate(-505.000000, -18.000000)" fill="#111111" fill-rule="nonzero">
            <g id="Group-4" transform="translate(496.000000, 7.000000)">
                <g id="logo" transform="translate(9.000000, 11.000000)">
                    <path d="M8.05718085,82.6103723 C8.05718085,82.8045213 7.96010638,82.9015957 7.76595745,82.9015957 L5.92154255,82.9015957 C5.72739362,82.9015957 5.63031915,82.8045213 5.63031915,82.6103723 L5.63031915,80.9601064 C5.63031915,80.474734 5.33909574,80.1835106 4.8537234,80.1835106 L3.68882979,80.1835106 C3.20345745,80.1835106 2.91223404,80.474734 2.91223404,80.9601064 L2.91223404,87.8523936 C2.91223404,88.337766 3.20345745,88.6289894 3.68882979,88.6289894 L4.8537234,88.6289894 C5.33909574,88.6289894 5.63031915,88.4348404 5.63031915,87.8523936 L5.63031915,86.2021277 C5.63031915,86.0079787 5.72739362,85.9109043 5.92154255,85.9109043 L7.76595745,85.9109043 C7.96010638,85.9109043 8.05718085,86.0079787 8.05718085,86.2021277 L8.05718085,88.337766 C8.05718085,90.1821809 7.08643617,91.0558511 5.33909574,91.0558511 L3.20345745,91.0558511 C1.35904255,91.0558511 0.388297872,90.0851064 0.388297872,88.337766 L0.388297872,80.5718085 C0.388297872,78.7273936 1.35904255,77.8537234 3.20345745,77.8537234 L5.33909574,77.8537234 C7.18351064,77.8537234 8.05718085,78.7273936 8.05718085,80.5718085 L8.05718085,82.6103723 Z M20.8710106,84.3577128 C20.8710106,85.4255319 20.4827128,86.2992021 19.8031915,86.6875 L20.7739362,90.7646277 C20.8710106,90.9587766 20.6768617,91.0558511 20.4827128,91.0558511 L18.5412234,91.0558511 C18.3470745,91.0558511 18.25,90.9587766 18.25,90.7646277 L17.3763298,87.0757979 L15.6289894,87.0757979 L15.6289894,90.7646277 C15.6289894,90.9587766 15.5319149,91.0558511 15.337766,91.0558511 L13.3962766,91.0558511 C13.2021277,91.0558511 13.1050532,90.9587766 13.1050532,90.7646277 L13.1050532,78.0478723 C13.1050532,77.8537234 13.2021277,77.7566489 13.3962766,77.7566489 L17.9587766,77.7566489 C19.8031915,77.7566489 20.6768617,78.6303191 20.6768617,80.474734 L20.6768617,84.3577128 L20.8710106,84.3577128 Z M17.5704787,84.6489362 C18.0558511,84.6489362 18.3470745,84.3577128 18.3470745,83.8723404 L18.3470745,80.9601064 C18.3470745,80.474734 18.0558511,80.1835106 17.5704787,80.1835106 L15.6289894,80.1835106 L15.6289894,84.5518617 L17.5704787,84.5518617 L17.5704787,84.6489362 Z M33.1994681,91.0558511 C33.0053191,91.0558511 32.9082447,90.9587766 32.9082447,90.7646277 L32.2287234,88.337766 L28.6369681,88.337766 L28.0545213,90.7646277 C28.0545213,90.9587766 27.9574468,91.0558511 27.7632979,91.0558511 L25.8218085,91.0558511 C25.6276596,91.0558511 25.5305851,90.9587766 25.6276596,90.7646277 L28.831117,78.0478723 C28.831117,77.8537234 29.025266,77.7566489 29.1223404,77.7566489 L31.7433511,77.7566489 C31.9375,77.7566489 32.0345745,77.8537234 32.0345745,78.0478723 L35.2380319,90.7646277 C35.3351064,90.9587766 35.2380319,91.0558511 34.9468085,91.0558511 C34.9468085,91.0558511 33.1994681,91.0558511 33.1994681,91.0558511 Z M30.481383,81.0571809 L29.3164894,86.2992021 L31.7433511,86.2992021 L30.481383,81.0571809 Z M47.8577128,79.9893617 C47.8577128,80.1835106 47.7606383,80.2805851 47.5664894,80.2805851 L42.8098404,80.2805851 L42.8098404,83.4840426 L46.4015957,83.4840426 C46.5957447,83.4840426 46.6928191,83.581117 46.6928191,83.775266 L46.6928191,85.7167553 C46.6928191,85.9109043 46.5957447,86.0079787 46.4015957,86.0079787 L42.8098404,86.0079787 L42.8098404,90.7646277 C42.8098404,90.9587766 42.712766,91.0558511 42.518617,91.0558511 L40.4800532,91.0558511 C40.2859043,91.0558511 40.1888298,90.9587766 40.1888298,90.7646277 L40.1888298,78.1449468 C40.1888298,77.9507979 40.2859043,77.8537234 40.4800532,77.8537234 L47.5664894,77.8537234 C47.7606383,77.8537234 47.8577128,77.9507979 47.8577128,78.1449468 L47.8577128,79.9893617 Z M60.0890957,77.7566489 C60.2832447,77.7566489 60.3803191,77.8537234 60.3803191,78.0478723 L60.3803191,79.9893617 C60.3803191,80.1835106 60.2832447,80.2805851 60.0890957,80.2805851 L57.856383,80.2805851 L57.856383,90.7646277 C57.856383,90.9587766 57.7593085,91.0558511 57.5651596,91.0558511 L55.5265957,91.0558511 C55.3324468,91.0558511 55.2353723,90.9587766 55.2353723,90.7646277 L55.2353723,80.2805851 L53.0026596,80.2805851 C52.8085106,80.2805851 52.7114362,80.1835106 52.7114362,79.9893617 L52.7114362,78.0478723 C52.7114362,77.8537234 52.8085106,77.7566489 53.0026596,77.7566489 C53.099734,77.7566489 60.0890957,77.7566489 60.0890957,77.7566489 Z M80.7659574,83.0957447 C80.7659574,83.775266 80.2805851,84.2606383 79.6010638,84.3577128 C80.2805851,84.4547872 80.7659574,84.9401596 80.7659574,85.6196809 L80.7659574,88.143617 C80.7659574,89.9880319 79.7952128,90.8617021 77.9507979,90.8617021 L73.3882979,90.8617021 C73.1941489,90.8617021 73.0970745,90.7646277 73.0970745,90.5704787 L73.0970745,78.0478723 C73.0970745,77.8537234 73.1941489,77.7566489 73.3882979,77.7566489 L77.9507979,77.7566489 C79.7952128,77.7566489 80.7659574,78.6303191 80.7659574,80.474734 C80.7659574,80.474734 80.7659574,83.0957447 80.7659574,83.0957447 Z M78.3390957,80.9601064 C78.3390957,80.474734 78.1449468,80.1835106 77.5625,80.1835106 L75.4268617,80.1835106 L75.4268617,83.1928191 L77.5625,83.1928191 C78.0478723,83.1928191 78.3390957,82.9015957 78.3390957,82.5132979 C78.3390957,82.5132979 78.3390957,80.9601064 78.3390957,80.9601064 Z M78.3390957,86.4933511 C78.3390957,86.0079787 78.1449468,85.7167553 77.5625,85.7167553 L75.4268617,85.7167553 L75.4268617,88.7260638 L77.5625,88.7260638 C78.0478723,88.7260638 78.3390957,88.5319149 78.3390957,87.9494681 C78.3390957,87.8523936 78.3390957,86.4933511 78.3390957,86.4933511 Z M93.4827128,79.9893617 C93.4827128,80.1835106 93.3856383,80.2805851 93.1914894,80.2805851 L88.4348404,80.2805851 L88.4348404,83.1928191 L92.0265957,83.1928191 C92.2207447,83.1928191 92.3178191,83.2898936 92.3178191,83.4840426 L92.3178191,85.4255319 C92.3178191,85.6196809 92.2207447,85.7167553 92.0265957,85.7167553 L88.4348404,85.7167553 L88.4348404,88.5319149 L93.1914894,88.5319149 C93.3856383,88.5319149 93.4827128,88.6289894 93.4827128,88.8231383 L93.4827128,90.7646277 C93.4827128,90.9587766 93.3856383,91.0558511 93.1914894,91.0558511 L86.2021277,91.0558511 C86.0079787,91.0558511 85.9109043,90.9587766 85.9109043,90.7646277 L85.9109043,78.1449468 C85.9109043,77.9507979 86.0079787,77.8537234 86.2021277,77.8537234 L93.1914894,77.8537234 C93.3856383,77.8537234 93.4827128,77.9507979 93.4827128,78.1449468 L93.4827128,79.9893617 Z M106.102394,79.9893617 C106.102394,80.1835106 106.005319,80.2805851 105.81117,80.2805851 L101.054521,80.2805851 L101.054521,83.1928191 L104.646277,83.1928191 C104.840426,83.1928191 104.9375,83.2898936 104.9375,83.4840426 L104.9375,85.4255319 C104.9375,85.6196809 104.840426,85.7167553 104.646277,85.7167553 L101.054521,85.7167553 L101.054521,88.5319149 L105.81117,88.5319149 C106.005319,88.5319149 106.102394,88.6289894 106.102394,88.8231383 L106.102394,90.7646277 C106.102394,90.9587766 106.005319,91.0558511 105.81117,91.0558511 L98.8218085,91.0558511 C98.6276596,91.0558511 98.5305851,90.9587766 98.5305851,90.7646277 L98.5305851,78.1449468 C98.5305851,77.9507979 98.6276596,77.8537234 98.8218085,77.8537234 L105.81117,77.8537234 C106.005319,77.8537234 106.102394,77.9507979 106.102394,78.1449468 L106.102394,79.9893617 Z M118.819149,84.3577128 C118.819149,85.4255319 118.430851,86.2992021 117.75133,86.6875 L118.722074,90.7646277 C118.819149,90.9587766 118.625,91.0558511 118.430851,91.0558511 L116.586436,91.0558511 C116.392287,91.0558511 116.295213,90.9587766 116.295213,90.7646277 L115.421543,87.0757979 L113.674202,87.0757979 L113.674202,90.7646277 C113.674202,90.9587766 113.577128,91.0558511 113.382979,91.0558511 L111.441489,91.0558511 C111.24734,91.0558511 111.150266,90.9587766 111.150266,90.7646277 L111.150266,78.0478723 C111.150266,77.8537234 111.24734,77.7566489 111.441489,77.7566489 L116.003989,77.7566489 C117.848404,77.7566489 118.722074,78.6303191 118.722074,80.474734 L118.819149,84.3577128 Z M115.615691,84.6489362 C116.101064,84.6489362 116.392287,84.3577128 116.392287,83.8723404 L116.392287,80.9601064 C116.392287,80.474734 116.101064,80.1835106 115.615691,80.1835106 L113.674202,80.1835106 L113.674202,84.5518617 L115.615691,84.5518617 L115.615691,84.6489362 Z M139.787234,77.7566489 C139.981383,77.7566489 140.078457,77.8537234 140.078457,78.0478723 L140.078457,90.7646277 C140.078457,90.9587766 139.981383,91.0558511 139.787234,91.0558511 L138.331117,91.0558511 C138.136968,91.0558511 138.039894,90.9587766 138.039894,90.8617021 L134.448138,83.581117 L134.448138,90.7646277 C134.448138,90.9587766 134.351064,91.0558511 134.156915,91.0558511 L132.3125,91.0558511 C132.118351,91.0558511 132.021277,90.9587766 132.021277,90.7646277 L132.021277,78.0478723 C132.021277,77.8537234 132.118351,77.7566489 132.3125,77.7566489 L133.768617,77.7566489 C133.962766,77.7566489 134.05984,77.8537234 134.05984,77.9507979 L137.651596,85.231383 L137.651596,78.0478723 C137.651596,77.8537234 137.74867,77.7566489 137.942819,77.7566489 L139.787234,77.7566489 Z M152.795213,79.9893617 C152.795213,80.1835106 152.698138,80.2805851 152.503989,80.2805851 L147.74734,80.2805851 L147.74734,83.1928191 L151.339096,83.1928191 C151.533245,83.1928191 151.630319,83.2898936 151.630319,83.4840426 L151.630319,85.4255319 C151.630319,85.6196809 151.533245,85.7167553 151.339096,85.7167553 L147.74734,85.7167553 L147.74734,88.5319149 L152.503989,88.5319149 C152.698138,88.5319149 152.795213,88.6289894 152.795213,88.8231383 L152.795213,90.7646277 C152.795213,90.9587766 152.698138,91.0558511 152.503989,91.0558511 L145.514628,91.0558511 C145.320479,91.0558511 145.223404,90.9587766 145.223404,90.7646277 L145.223404,78.1449468 C145.223404,77.9507979 145.320479,77.8537234 145.514628,77.8537234 L152.503989,77.8537234 C152.698138,77.8537234 152.795213,77.9507979 152.795213,78.1449468 L152.795213,79.9893617 Z M170.55984,77.7566489 C170.851064,77.7566489 170.948138,77.9507979 170.948138,78.1449468 L169.103723,90.7646277 C169.103723,90.9587766 168.909574,91.0558511 168.715426,91.0558511 L166.579787,91.0558511 C166.385638,91.0558511 166.191489,90.9587766 166.191489,90.7646277 L164.444149,82.9015957 L162.599734,90.7646277 C162.50266,90.9587766 162.405585,91.0558511 162.211436,91.0558511 L160.075798,91.0558511 C159.881649,91.0558511 159.6875,90.9587766 159.6875,90.6675532 L157.746011,78.1449468 C157.746011,77.9507979 157.843085,77.7566489 158.134309,77.7566489 L159.978723,77.7566489 C160.172872,77.7566489 160.367021,77.8537234 160.367021,78.1449468 L161.240691,86.1050532 L161.337766,86.1050532 L163.279255,78.0478723 C163.37633,77.8537234 163.473404,77.7566489 163.667553,77.7566489 L164.832447,77.7566489 C165.026596,77.7566489 165.220745,77.8537234 165.220745,78.0478723 L167.162234,86.1050532 L167.259309,86.1050532 L168.230053,78.1449468 C168.230053,77.9507979 168.424202,77.7566489 168.618351,77.7566489 L170.55984,77.7566489 Z M180.75266,77.7566489 C182.597074,77.7566489 183.470745,78.6303191 183.470745,80.474734 L183.470745,81.7367021 C183.470745,81.9308511 183.37367,82.0279255 183.179521,82.0279255 L181.238032,82.0279255 C181.043883,82.0279255 180.946809,81.9308511 180.946809,81.7367021 L180.946809,80.9601064 C180.946809,80.474734 180.75266,80.1835106 180.170213,80.1835106 L179.199468,80.1835106 C178.714096,80.1835106 178.422872,80.474734 178.422872,80.9601064 L178.422872,82.6103723 L182.985372,84.0664894 C183.276596,84.1635638 183.470745,84.3577128 183.470745,84.7460106 L183.470745,88.337766 C183.470745,90.1821809 182.597074,91.0558511 180.75266,91.0558511 L178.617021,91.0558511 C176.772606,91.0558511 175.898936,90.0851064 175.898936,88.337766 L175.898936,87.1728723 C175.898936,86.9787234 175.996011,86.8816489 176.19016,86.8816489 L178.131649,86.8816489 C178.325798,86.8816489 178.422872,86.9787234 178.422872,87.1728723 L178.422872,87.9494681 C178.422872,88.4348404 178.714096,88.7260638 179.199468,88.7260638 L180.170213,88.7260638 C180.655585,88.7260638 180.946809,88.5319149 180.946809,87.9494681 L180.946809,86.0079787 L176.384309,84.5518617 C176.093085,84.4547872 175.898936,84.2606383 175.898936,83.8723404 L175.898936,80.5718085 C175.898936,78.7273936 176.869681,77.8537234 178.617021,77.8537234 L180.75266,77.8537234 L180.75266,77.7566489 Z M188.518617,89.0172872 C188.518617,88.8231383 188.615691,88.6289894 188.906915,88.6289894 L190.654255,88.6289894 C190.848404,88.6289894 191.042553,88.7260638 191.042553,89.0172872 L191.042553,90.9587766 C191.042553,91.1529255 191.042553,91.25 190.945479,91.4441489 L189.974734,93.0944149 C189.87766,93.1914894 189.87766,93.1914894 189.780585,93.1914894 L188.906915,93.1914894 C188.712766,93.1914894 188.712766,93.0944149 188.712766,92.9973404 L189.489362,91.25 L189.003989,91.25 C188.80984,91.25 188.615691,91.1529255 188.615691,90.8617021 L188.615691,89.0172872 L188.518617,89.0172872 Z M211.816489,79.9893617 C211.816489,80.1835106 211.719415,80.2805851 211.525266,80.2805851 L206.768617,80.2805851 L206.768617,83.1928191 L210.360372,83.1928191 C210.554521,83.1928191 210.651596,83.2898936 210.651596,83.4840426 L210.651596,85.4255319 C210.651596,85.6196809 210.554521,85.7167553 210.360372,85.7167553 L206.768617,85.7167553 L206.768617,88.5319149 L211.525266,88.5319149 C211.719415,88.5319149 211.816489,88.6289894 211.816489,88.8231383 L211.816489,90.7646277 C211.816489,90.9587766 211.719415,91.0558511 211.525266,91.0558511 L204.535904,91.0558511 C204.341755,91.0558511 204.244681,90.9587766 204.244681,90.7646277 L204.244681,78.1449468 C204.244681,77.9507979 204.341755,77.8537234 204.535904,77.8537234 L211.525266,77.8537234 C211.719415,77.8537234 211.816489,77.9507979 211.816489,78.1449468 L211.816489,79.9893617 Z M225.115691,77.7566489 C225.406915,77.7566489 225.503989,77.9507979 225.406915,78.1449468 L222.397606,90.6675532 C222.300532,90.8617021 222.203457,90.9587766 222.009309,90.9587766 L220.067819,90.9587766 C219.87367,90.9587766 219.679521,90.8617021 219.679521,90.6675532 L216.670213,78.1449468 C216.573138,77.8537234 216.767287,77.7566489 216.961436,77.7566489 L218.708777,77.7566489 C218.902926,77.7566489 219.097074,77.8537234 219.097074,78.0478723 L221.038564,86.6875 L222.980053,78.1449468 C223.077128,77.9507979 223.174202,77.8537234 223.368351,77.8537234 L225.212766,77.8537234 L225.212766,77.7566489 L225.115691,77.7566489 Z M237.929521,79.9893617 C237.929521,80.1835106 237.832447,80.2805851 237.638298,80.2805851 L232.978723,80.2805851 L232.978723,83.1928191 L236.570479,83.1928191 C236.764628,83.1928191 236.861702,83.2898936 236.861702,83.4840426 L236.861702,85.4255319 C236.861702,85.6196809 236.764628,85.7167553 236.570479,85.7167553 L232.978723,85.7167553 L232.978723,88.5319149 L237.735372,88.5319149 C237.929521,88.5319149 238.026596,88.6289894 238.026596,88.8231383 L238.026596,90.7646277 C238.026596,90.9587766 237.929521,91.0558511 237.735372,91.0558511 L230.746011,91.0558511 C230.551862,91.0558511 230.454787,90.9587766 230.454787,90.7646277 L230.454787,78.1449468 C230.454787,77.9507979 230.551862,77.8537234 230.746011,77.8537234 L237.735372,77.8537234 C237.929521,77.8537234 238.026596,77.9507979 238.026596,78.1449468 L238.026596,79.9893617 L237.929521,79.9893617 Z M250.840426,77.7566489 C251.034574,77.7566489 251.131649,77.8537234 251.131649,78.0478723 L251.131649,90.7646277 C251.131649,90.9587766 251.034574,91.0558511 250.840426,91.0558511 L249.384309,91.0558511 C249.19016,91.0558511 249.093085,90.9587766 249.093085,90.8617021 L245.50133,83.581117 L245.50133,90.7646277 C245.50133,90.9587766 245.404255,91.0558511 245.210106,91.0558511 L243.365691,91.0558511 C243.171543,91.0558511 243.074468,90.9587766 243.074468,90.7646277 L243.074468,78.0478723 C243.074468,77.8537234 243.171543,77.7566489 243.365691,77.7566489 L244.821809,77.7566489 C245.015957,77.7566489 245.113032,77.8537234 245.113032,77.9507979 L248.704787,85.231383 L248.704787,78.0478723 C248.704787,77.8537234 248.801862,77.7566489 248.996011,77.7566489 L250.840426,77.7566489 Z M263.363032,77.7566489 C263.557181,77.7566489 263.654255,77.8537234 263.654255,78.0478723 L263.654255,79.9893617 C263.654255,80.1835106 263.557181,80.2805851 263.363032,80.2805851 L261.130319,80.2805851 L261.130319,90.7646277 C261.130319,90.9587766 261.033245,91.0558511 260.839096,91.0558511 L258.800532,91.0558511 C258.606383,91.0558511 258.509309,90.9587766 258.509309,90.7646277 L258.509309,80.2805851 L256.276596,80.2805851 C256.082447,80.2805851 255.985372,80.1835106 255.985372,79.9893617 L255.985372,78.0478723 C255.985372,77.8537234 256.082447,77.7566489 256.276596,77.7566489 C256.37367,77.7566489 263.363032,77.7566489 263.363032,77.7566489 Z M273.555851,77.7566489 C275.400266,77.7566489 276.273936,78.6303191 276.273936,80.474734 L276.273936,81.7367021 C276.273936,81.9308511 276.176862,82.0279255 275.982713,82.0279255 L274.041223,82.0279255 C273.847074,82.0279255 273.75,81.9308511 273.75,81.7367021 L273.75,80.9601064 C273.75,80.474734 273.555851,80.1835106 272.973404,80.1835106 L272.00266,80.1835106 C271.517287,80.1835106 271.226064,80.474734 271.226064,80.9601064 L271.226064,82.6103723 L275.788564,84.0664894 C276.079787,84.1635638 276.273936,84.3577128 276.273936,84.7460106 L276.273936,88.337766 C276.273936,90.1821809 275.303191,91.0558511 273.555851,91.0558511 L271.420213,91.0558511 C269.575798,91.0558511 268.702128,90.0851064 268.702128,88.337766 L268.702128,87.1728723 C268.702128,86.9787234 268.799202,86.8816489 268.993351,86.8816489 L270.93484,86.8816489 C271.128989,86.8816489 271.226064,86.9787234 271.226064,87.1728723 L271.226064,87.9494681 C271.226064,88.4348404 271.517287,88.7260638 272.00266,88.7260638 L272.973404,88.7260638 C273.458777,88.7260638 273.75,88.5319149 273.75,87.9494681 L273.75,86.0079787 L269.1875,84.5518617 C268.896277,84.4547872 268.702128,84.2606383 268.702128,83.8723404 L268.702128,80.5718085 C268.702128,78.7273936 269.672872,77.8537234 271.420213,77.8537234 L273.555851,77.8537234 L273.555851,77.7566489 Z M295.591755,75.8151596 C295.785904,75.8151596 295.980053,75.912234 295.980053,76.2034574 L295.980053,77.9507979 C295.980053,78.1449468 295.882979,78.3390957 295.591755,78.3390957 L292.679521,78.3390957 C292.194149,78.3390957 291.902926,78.6303191 291.902926,79.1156915 L291.902926,81.2513298 C291.902926,81.7367021 292.194149,81.9308511 292.679521,81.9308511 L294.523936,81.9308511 L294.523936,81.1542553 C294.523936,80.9601064 294.621011,80.7659574 294.912234,80.7659574 L296.756649,80.7659574 C296.950798,80.7659574 297.144947,80.8630319 297.144947,81.1542553 L297.144947,81.9308511 L297.921543,81.9308511 C298.115691,81.9308511 298.30984,82.0279255 298.30984,82.3191489 L298.30984,84.1635638 C298.30984,84.3577128 298.212766,84.5518617 297.921543,84.5518617 L297.047872,84.5518617 L297.047872,90.7646277 C297.047872,90.9587766 296.950798,91.1529255 296.659574,91.1529255 L292.194149,91.1529255 C290.349734,91.1529255 289.378989,90.1821809 289.378989,88.4348404 L289.378989,84.7460106 C289.378989,84.0664894 289.864362,83.581117 290.543883,83.4840426 C289.864362,83.3869681 289.378989,82.9015957 289.378989,82.2220745 L289.378989,78.9215426 C289.378989,77.0771277 290.349734,76.2034574 292.194149,76.2034574 L295.591755,76.2034574 L295.591755,75.8151596 Z M292.679521,84.5518617 C292.194149,84.5518617 291.902926,84.8430851 291.902926,85.3284574 L291.902926,87.8523936 C291.902926,88.337766 292.194149,88.6289894 292.679521,88.6289894 L294.523936,88.6289894 L294.523936,84.6489362 L292.679521,84.6489362 L292.679521,84.5518617 Z M316.365691,78.0478723 C316.365691,77.8537234 316.462766,77.7566489 316.656915,77.7566489 L318.695479,77.7566489 C318.889628,77.7566489 318.986702,77.8537234 318.986702,78.0478723 L318.986702,88.337766 C318.986702,90.1821809 318.015957,91.0558511 316.268617,91.0558511 L314.132979,91.0558511 C312.288564,91.0558511 311.414894,90.0851064 311.414894,88.337766 L311.414894,86.3962766 C311.414894,86.2021277 311.511968,86.1050532 311.706117,86.1050532 L313.647606,86.1050532 C313.841755,86.1050532 313.93883,86.2021277 313.93883,86.3962766 L313.93883,87.7553191 C313.93883,88.2406915 314.230053,88.5319149 314.715426,88.5319149 L315.68617,88.5319149 C316.171543,88.5319149 316.462766,88.2406915 316.462766,87.7553191 L316.462766,78.0478723 L316.365691,78.0478723 Z M324.034574,80.5718085 C324.034574,78.7273936 325.005319,77.8537234 326.75266,77.8537234 L328.888298,77.8537234 C330.732713,77.8537234 331.606383,78.7273936 331.606383,80.5718085 L331.606383,88.337766 C331.606383,90.1821809 330.635638,91.0558511 328.888298,91.0558511 L326.75266,91.0558511 C324.908245,91.0558511 324.034574,90.0851064 324.034574,88.337766 L324.034574,80.5718085 Z M328.597074,88.7260638 C329.082447,88.7260638 329.37367,88.5319149 329.37367,87.9494681 L329.37367,81.0571809 C329.37367,80.5718085 329.082447,80.2805851 328.597074,80.2805851 L327.432181,80.2805851 C326.946809,80.2805851 326.655585,80.5718085 326.655585,81.0571809 L326.655585,87.9494681 C326.655585,88.4348404 326.946809,88.7260638 327.432181,88.7260638 L328.597074,88.7260638 Z M344.420213,83.0957447 C344.420213,83.775266 343.93484,84.2606383 343.255319,84.3577128 C343.93484,84.4547872 344.420213,84.9401596 344.420213,85.6196809 L344.420213,88.143617 C344.420213,89.9880319 343.449468,90.8617021 341.605053,90.8617021 L337.042553,90.8617021 C336.848404,90.8617021 336.75133,90.7646277 336.75133,90.5704787 L336.75133,78.0478723 C336.75133,77.8537234 336.848404,77.7566489 337.042553,77.7566489 L341.605053,77.7566489 C343.449468,77.7566489 344.420213,78.6303191 344.420213,80.474734 C344.420213,80.474734 344.420213,83.0957447 344.420213,83.0957447 Z M341.993351,80.9601064 C341.993351,80.474734 341.799202,80.1835106 341.216755,80.1835106 L339.178191,80.1835106 L339.178191,83.1928191 L341.31383,83.1928191 C341.799202,83.1928191 342.090426,82.9015957 342.090426,82.5132979 L342.090426,81.0571809 L341.993351,81.0571809 L341.993351,80.9601064 Z M341.993351,86.4933511 C341.993351,86.0079787 341.799202,85.7167553 341.216755,85.7167553 L339.178191,85.7167553 L339.178191,88.7260638 L341.31383,88.7260638 C341.799202,88.7260638 342.090426,88.5319149 342.090426,87.9494681 L342.090426,86.5904255 L341.993351,86.4933511 Z M354.418883,77.7566489 C356.263298,77.7566489 357.136968,78.6303191 357.136968,80.474734 L357.136968,81.7367021 C357.136968,81.9308511 357.039894,82.0279255 356.845745,82.0279255 L354.904255,82.0279255 C354.710106,82.0279255 354.613032,81.9308511 354.613032,81.7367021 L354.613032,80.9601064 C354.613032,80.474734 354.418883,80.1835106 353.836436,80.1835106 L352.865691,80.1835106 C352.380319,80.1835106 352.089096,80.474734 352.089096,80.9601064 L352.089096,82.6103723 L356.651596,84.0664894 C356.942819,84.1635638 357.136968,84.3577128 357.136968,84.7460106 L357.136968,88.337766 C357.136968,90.1821809 356.166223,91.0558511 354.418883,91.0558511 L352.283245,91.0558511 C350.43883,91.0558511 349.56516,90.0851064 349.56516,88.337766 L349.56516,87.1728723 C349.56516,86.9787234 349.662234,86.8816489 349.856383,86.8816489 L351.797872,86.8816489 C351.992021,86.8816489 352.089096,86.9787234 352.089096,87.1728723 L352.089096,87.9494681 C352.089096,88.4348404 352.380319,88.7260638 352.865691,88.7260638 L353.836436,88.7260638 C354.321809,88.7260638 354.613032,88.5319149 354.613032,87.9494681 L354.613032,86.0079787 L350.050532,84.5518617 C349.759309,84.4547872 349.56516,84.2606383 349.56516,83.8723404 L349.56516,80.5718085 C349.56516,78.7273936 350.535904,77.8537234 352.283245,77.8537234 L354.418883,77.8537234 L354.418883,77.7566489 Z" id="Shape"></path>
                    <g id="Group">
                        <g id="Shape">
                            <path d="M21.2593085,0.582446809 L6.79521277,0.582446809 L1.74734043,0.582446809 L0.48537234,0.582446809 L0.48537234,1.84441489 L0.48537234,64.0691489 L0.48537234,65.331117 L1.74734043,65.331117 L6.79521277,65.331117 L21.2593085,65.331117 C28.831117,65.331117 33.0053191,61.2539894 33.0053191,53.6821809 L33.0053191,38.8297872 C33.0053191,35.8204787 30.7726064,33.587766 27.8603723,33.1023936 L27.8603723,32.9082447 C30.7726064,32.4228723 33.0053191,30.1901596 33.0053191,27.1808511 L33.0053191,12.231383 C33.0053191,4.65957447 28.831117,0.582446809 21.2593085,0.582446809 Z M22.2300532,51.4494681 C22.2300532,53.6821809 21.0651596,54.6529255 19.0265957,54.6529255 L11.6489362,54.6529255 L11.6489362,38.3444149 L19.0265957,38.3444149 C21.2593085,38.3444149 22.2300532,39.5093085 22.2300532,41.5478723 L22.2300532,51.4494681 Z M22.2300532,24.462766 C22.2300532,26.5013298 21.0651596,27.6662234 19.0265957,27.6662234 L11.6489362,27.6662234 L11.6489362,11.2606383 L19.0265957,11.2606383 C21.2593085,11.2606383 22.2300532,12.4255319 22.2300532,14.4640957 L22.2300532,24.462766 Z"></path>
                            <path d="M60.4773936,0.582446809 L45.1396277,0.582446809 L40.0917553,0.582446809 L38.8297872,0.582446809 L38.8297872,1.84441489 L38.8297872,64.0691489 L38.8297872,65.331117 L40.0917553,65.331117 L45.1396277,65.331117 L48.537234,65.331117 C49.3138298,65.331117 49.7992021,64.8457447 49.7992021,64.0691489 L49.7992021,43.6835106 L55.4295213,43.6835106 L60.8656915,64.2632979 C61.0598404,65.0398936 61.4481383,65.4281915 62.224734,65.4281915 L70.6702128,65.4281915 C71.1555851,65.4281915 72.2234043,65.4281915 72.2234043,65.4281915 C72.2234043,65.4281915 71.9321809,64.4574468 71.8351064,63.9720745 L66.2047872,42.712766 C70.087766,40.9654255 72.1263298,37.4707447 72.1263298,32.0345745 L72.1263298,12.231383 C72.1263298,4.65957447 68.1462766,0.582446809 60.4773936,0.582446809 Z M61.1569149,29.8018617 C61.1569149,31.9375 59.9920213,33.0053191 57.9534574,33.0053191 L49.8962766,33.0053191 L49.8962766,11.2606383 L57.9534574,11.2606383 C60.0890957,11.2606383 61.1569149,12.4255319 61.1569149,14.4640957 L61.1569149,29.8018617 Z"></path>
                            <path d="M108.529255,0.582446809 L83.775266,0.582446809 L78.6303191,0.582446809 L77.3683511,0.582446809 L77.3683511,1.84441489 L77.3683511,64.0691489 L77.3683511,65.331117 L78.6303191,65.331117 L83.6781915,65.331117 L108.432181,65.331117 C108.917553,65.331117 109.694149,65.331117 109.694149,65.331117 C109.694149,65.331117 109.694149,64.4574468 109.694149,64.0691489 L109.694149,56.0119681 C109.694149,55.1382979 109.402926,54.75 108.432181,54.75 L88.143617,54.75 L88.143617,38.3444149 L103.578457,38.3444149 C104.355053,38.3444149 104.840426,37.8590426 104.840426,36.9853723 L104.840426,28.9281915 C104.840426,28.0545213 104.355053,27.5691489 103.578457,27.5691489 L88.143617,27.5691489 L88.143617,11.3577128 L108.432181,11.3577128 C109.402926,11.3577128 109.694149,10.775266 109.694149,9.99867021 L109.694149,1.84441489 C109.694149,1.45611702 109.694149,0.582446809 109.694149,0.582446809 C109.694149,0.582446809 109.014628,0.582446809 108.529255,0.582446809 Z"></path>
                            <path d="M165.220745,0.582446809 L157.551862,0.582446809 C156.581117,0.582446809 155.901596,1.16489362 155.804521,2.1356383 L152.503989,40.0917553 L152.115691,40.0917553 L144.155585,2.03856383 C143.864362,1.06781915 143.378989,0.582446809 142.408245,0.582446809 L137.554521,0.582446809 C136.583777,0.582446809 136.00133,1.06781915 135.807181,2.03856383 L127.75,40.0917553 L127.361702,40.0917553 L124.158245,2.1356383 C124.06117,1.16489362 123.381649,0.582446809 122.410904,0.582446809 L114.742021,0.582446809 C114.159574,0.582446809 112.994681,0.582446809 112.994681,0.582446809 C112.994681,0.582446809 113.091755,1.84441489 113.18883,2.32978723 L119.789894,63.875 C119.789894,64.3603723 119.886968,65.4281915 119.886968,65.4281915 C119.886968,65.4281915 120.954787,65.4281915 121.44016,65.4281915 L129.49734,65.4281915 C130.468085,65.4281915 131.050532,64.9428191 131.244681,64.0691489 L139.787234,27.375 L148.232713,63.9720745 C148.523936,64.9428191 149.009309,65.4281915 149.980053,65.4281915 L157.94016,65.4281915 C158.425532,65.4281915 159.493351,65.4281915 159.493351,65.4281915 C159.493351,65.4281915 159.590426,64.4574468 159.6875,63.875 L166.676862,2.32978723 L166.871011,0.582446809 C166.968085,0.582446809 165.803191,0.582446809 165.220745,0.582446809 Z"></path>
                            <path d="M192.304521,0.582446809 L177.840426,0.582446809 L172.792553,0.582446809 L171.530585,0.582446809 L171.530585,1.84441489 L171.530585,64.0691489 L171.530585,65.331117 L172.792553,65.331117 L177.840426,65.331117 L192.304521,65.331117 C199.87633,65.331117 204.050532,61.2539894 204.050532,53.6821809 L204.050532,38.8297872 C204.050532,35.8204787 201.817819,33.587766 198.905585,33.1023936 L198.905585,32.9082447 C201.817819,32.4228723 204.050532,30.1901596 204.050532,27.1808511 L204.050532,12.231383 C204.050532,4.65957447 199.87633,0.582446809 192.304521,0.582446809 Z M193.275266,51.4494681 C193.275266,53.6821809 192.110372,54.6529255 190.071809,54.6529255 L182.694149,54.6529255 L182.694149,38.3444149 L190.071809,38.3444149 C192.304521,38.3444149 193.275266,39.5093085 193.275266,41.5478723 L193.275266,51.4494681 Z M193.275266,24.462766 C193.275266,26.5013298 192.110372,27.6662234 190.071809,27.6662234 L182.694149,27.6662234 L182.694149,11.2606383 L190.071809,11.2606383 C192.304521,11.2606383 193.275266,12.4255319 193.275266,14.4640957 L193.275266,24.462766 Z"></path>
                            <path d="M230.066489,0.582446809 L220.941489,0.582446809 C213.369681,0.582446809 209.292553,4.65957447 209.292553,12.231383 L209.292553,53.6821809 C209.292553,61.2539894 213.369681,65.331117 220.941489,65.331117 L230.066489,65.331117 C237.638298,65.331117 241.715426,61.2539894 241.715426,53.6821809 L241.715426,12.231383 C241.8125,4.65957447 237.735372,0.582446809 230.066489,0.582446809 Z M231.328457,51.7406915 C231.328457,53.9734043 230.163564,54.9441489 228.125,54.9441489 L223.465426,54.9441489 C221.329787,54.9441489 220.261968,53.8763298 220.261968,51.7406915 L220.261968,14.2699468 C220.261968,12.1343085 221.426862,11.0664894 223.465426,11.0664894 L228.125,11.0664894 C230.260638,11.0664894 231.328457,12.231383 231.328457,14.2699468 L231.328457,51.7406915 Z"></path>
                            <path d="M313.06516,0.582446809 L309.667553,0.582446809 C308.793883,0.582446809 308.405585,1.06781915 308.405585,1.84441489 L308.405585,36.0146277 L307.920213,36.0146277 L295.591755,1.65026596 C295.300532,0.873670213 294.81516,0.582446809 294.135638,0.582446809 L291.12633,0.582446809 L286.078457,0.582446809 L284.816489,0.582446809 L284.816489,1.84441489 L284.816489,64.0691489 L284.816489,65.331117 L286.078457,65.331117 L291.12633,65.331117 L294.523936,65.331117 C295.397606,65.331117 295.785904,64.8457447 295.785904,64.0691489 L295.785904,29.8018617 L296.174202,29.8018617 L308.599734,64.3603723 C308.890957,65.1369681 309.37633,65.4281915 310.055851,65.4281915 L313.06516,65.4281915 L318.113032,65.4281915 L319.375,65.4281915 L319.375,64.1662234 L319.375,1.84441489 L319.375,0.582446809 L318.113032,0.582446809 L313.06516,0.582446809 Z"></path>
                            <path d="M345.488032,0.582446809 L331.023936,0.582446809 L325.976064,0.582446809 L324.714096,0.582446809 L324.714096,1.84441489 L324.714096,64.0691489 L324.714096,65.331117 L325.976064,65.331117 L331.023936,65.331117 L345.488032,65.331117 C353.05984,65.331117 357.136968,61.2539894 357.136968,53.6821809 L357.136968,12.3284574 C357.136968,4.75664894 353.05984,0.582446809 345.488032,0.582446809 Z M346.458777,51.4494681 C346.458777,53.6821809 345.293883,54.6529255 343.255319,54.6529255 L335.780585,54.6529255 L335.780585,11.2606383 L343.255319,11.2606383 C345.390957,11.2606383 346.458777,12.4255319 346.458777,14.5611702 L346.458777,51.4494681 Z"></path>
                            <path d="M277.341755,0.582446809 L272.682181,0.582446809 L269.867021,0.582446809 C268.993351,0.582446809 268.216755,1.35904255 268.216755,2.23271277 L268.216755,51.4494681 C268.216755,53.6821809 267.051862,54.6529255 265.013298,54.6529255 L260.839096,54.6529255 C258.703457,54.6529255 257.635638,53.5851064 257.635638,51.4494681 L257.635638,2.23271277 C257.635638,1.35904255 256.859043,0.582446809 255.985372,0.582446809 L252.878989,0.582446809 L248.219415,0.582446809 L246.569149,0.582446809 L246.569149,2.23271277 L246.569149,36.5 L246.569149,53.7792553 C246.569149,61.3510638 250.646277,65.4281915 258.218085,65.4281915 L267.343085,65.4281915 C274.914894,65.4281915 278.992021,61.3510638 278.992021,53.7792553 L278.992021,43.974734 L278.992021,2.23271277 L278.992021,0.582446809 L277.341755,0.582446809 Z"></path>
                        </g>
                        <path d="M363.446809,59.1183511 C364.12633,59.7978723 364.514628,60.768617 364.514628,61.7393617 C364.514628,62.7101064 364.12633,63.6808511 363.446809,64.3603723 C362.767287,65.0398936 361.796543,65.4281915 360.825798,65.4281915 C359.855053,65.4281915 358.981383,65.0398936 358.204787,64.3603723 C357.525266,63.6808511 357.136968,62.7101064 357.136968,61.7393617 C357.136968,60.768617 357.525266,59.7978723 358.204787,59.1183511 C358.884309,58.4388298 359.757979,58.0505319 360.825798,58.0505319 C361.796543,58.0505319 362.767287,58.4388298 363.446809,59.1183511 Z M362.864362,59.6037234 C362.281915,59.0212766 361.602394,58.7300532 360.825798,58.7300532 C360.049202,58.7300532 359.272606,59.0212766 358.787234,59.6037234 C358.204787,60.1861702 357.913564,60.962766 357.913564,61.7393617 C357.913564,62.5159574 358.204787,63.2925532 358.787234,63.7779255 C359.369681,64.3603723 360.049202,64.6515957 360.825798,64.6515957 C361.602394,64.6515957 362.378989,64.3603723 362.961436,63.7779255 C363.543883,63.1954787 363.835106,62.5159574 363.835106,61.7393617 C363.738032,60.8656915 363.446809,60.1861702 362.864362,59.6037234 Z M362.573138,60.768617 C362.573138,61.2539894 362.281915,61.6422872 361.796543,61.8364362 L362.670213,63.5837766 L361.31117,63.5837766 L360.631649,62.0305851 L360.534574,62.0305851 L360.534574,63.5837766 L359.175532,63.5837766 L359.175532,59.6037234 L360.825798,59.6037234 C361.990691,59.6037234 362.573138,60.0890957 362.573138,60.768617 Z M360.4375,60.3803191 L360.4375,61.3510638 L360.728723,61.3510638 C361.117021,61.3510638 361.31117,61.1569149 361.31117,60.8656915 C361.31117,60.5744681 361.117021,60.3803191 360.631649,60.3803191 L360.4375,60.3803191 Z" id="Shape"></path>
                    </g>
                </g>
            </g>
        </g>
    </g>
</svg>